<svg width="56" height="14" viewBox="0 0 56 14" fill="none" xmlns="http://www.w3.org/2000/svg">
<path d="M1.86932 11L2.80398 8.3054H6.78125L7.71094 11H9.34162L5.67756 0.818182H3.9027L0.238636 11H1.86932ZM3.25142 7.01278L4.75284 2.66761H4.83239L6.33381 7.01278H3.25142ZM10.6926 11H12.1792V7.94744H13.1436L15.4455 11H17.29L14.2971 7.07741L17.2551 3.36364H15.4157L12.8951 6.56534H12.1792V3.36364H10.6926V11ZM18.4446 11H19.9311V7.94744H20.8956L23.1974 11H25.0419L22.049 7.07741L25.0071 3.36364H23.1676L20.647 6.56534H19.9311V3.36364H18.4446V11ZM28.4189 11.169C29.6816 11.169 30.3926 10.5277 30.676 9.95597H30.7356V11H32.1873V5.92898C32.1873 3.70668 30.4373 3.2642 29.2243 3.2642C27.8422 3.2642 26.5694 3.82102 26.0723 5.21307L27.4693 5.53125C27.688 4.98935 28.2449 4.46733 29.2441 4.46733C30.2037 4.46733 30.6958 4.96946 30.6958 5.83452V5.86932C30.6958 6.41122 30.139 6.40128 28.7669 6.56037C27.3201 6.7294 25.8386 7.10724 25.8386 8.84233C25.8386 10.3438 26.9672 11.169 28.4189 11.169ZM28.742 9.97585C27.9018 9.97585 27.2953 9.59801 27.2953 8.86222C27.2953 8.06676 28.0012 7.78338 28.8613 7.66903C29.3436 7.6044 30.487 7.47514 30.7008 7.26136V8.24574C30.7008 9.15057 29.9799 9.97585 28.742 9.97585ZM34.8335 13.8636C36.0614 13.8636 36.837 13.2223 37.2795 12.0192L40.4364 3.37855L38.8306 3.36364L36.8967 9.28977H36.8171L34.8832 3.36364H33.2923L36.0863 11.0994L35.9023 11.6065C35.5245 12.6207 34.9925 12.7053 34.1772 12.4815L33.8192 13.6996C33.9982 13.7791 34.386 13.8636 34.8335 13.8636ZM43.2939 3.36364H41.8372V11H43.2939V7.82812H46.6V11H48.0517V3.36364H46.6V6.54048H43.2939V3.36364ZM49.0932 4.64631H51.5939V11H53.0456V4.64631H55.5364V3.36364H49.0932V4.64631Z" fill="black"/>
</svg>
